<?xml version="1.0" standalone="no"?>
<!DOCTYPE svg PUBLIC "-//W3C//DTD SVG 20010904//EN"
 "http://www.w3.org/TR/2001/REC-SVG-20010904/DTD/svg10.dtd">
<svg version="1.0" xmlns="http://www.w3.org/2000/svg"
 width="130.000000pt" height="125.000000pt" viewBox="0 0 130.000000 125.000000"
 preserveAspectRatio="xMidYMid meet">
<metadata>
Created by potrace 1.16, written by Peter Selinger 2001-2019
</metadata>
<g transform="translate(0.000000,125.000000) scale(0.100000,-0.100000)"
fill="#000000" stroke="none">
<path d="M615 1099 c-18 -117 -19 -120 -42 -114 -14 3 -23 1 -23 -6 0 -6 9
-13 20 -16 21 -6 28 -23 10 -23 -6 0 -28 9 -50 20 -45 23 -50 24 -50 10 0 -5
17 -18 38 -29 36 -20 36 -20 10 -21 -16 0 -28 -4 -28 -8 0 -5 -18 -8 -39 -8
-31 1 -41 -3 -45 -18 -3 -11 -9 -15 -16 -11 -7 4 -16 1 -21 -6 -5 -8 -9 -9 -9
-3 0 18 -48 14 -53 -5 -2 -9 -40 -36 -83 -60 -82 -46 -188 -120 -182 -127 2
-2 47 13 99 33 100 38 165 48 174 25 3 -9 12 -6 30 14 14 15 25 21 25 14 0 -7
7 -10 15 -6 8 3 19 -3 25 -12 8 -12 13 -14 16 -4 7 15 44 16 44 1 0 -6 9 -8
20 -4 27 8 25 1 -10 -62 -37 -65 -25 -69 24 -8 32 39 40 44 57 34 39 -21 32
-37 -55 -131 -89 -97 -99 -127 -21 -62 25 20 49 33 53 29 4 -4 1 -10 -5 -12
-7 -3 -13 -12 -13 -20 0 -13 3 -13 15 -3 25 20 19 -13 -6 -36 l-21 -19 24 -5
c18 -5 23 -13 23 -36 0 -46 25 -144 37 -144 6 0 8 11 6 25 -3 14 -1 22 4 18 6
-3 7 -19 4 -36 -10 -48 14 -234 29 -234 9 0 17 35 25 114 7 62 16 113 20 113
10 0 35 103 35 144 0 23 5 31 23 36 l24 5 -21 19 c-25 23 -31 56 -6 36 12 -10
15 -10 15 3 0 8 -6 17 -12 20 -7 2 -10 8 -6 12 4 4 28 -9 53 -29 78 -65 68
-35 -21 62 -87 94 -94 110 -55 131 17 10 25 5 57 -34 49 -61 61 -57 24 8 -35
63 -37 70 -10 62 11 -4 20 -2 20 4 0 15 37 14 44 -1 3 -10 8 -8 16 4 6 9 17
15 25 12 8 -4 15 -1 15 5 0 7 10 3 22 -9 22 -21 38 -26 38 -12 0 17 81 3 169
-31 52 -20 97 -35 99 -33 6 7 -100 81 -182 127 -43 24 -81 51 -83 60 -5 19
-53 23 -53 5 0 -6 -4 -5 -9 3 -5 7 -14 10 -21 6 -7 -4 -13 0 -16 11 -4 15 -14
19 -45 18 -21 0 -39 3 -39 8 0 4 -12 8 -27 8 -27 1 -27 1 10 21 20 11 37 24
37 29 0 14 -5 13 -50 -10 -44 -22 -60 -25 -60 -10 0 6 6 10 14 10 8 0 16 7 20
15 4 10 -1 14 -16 12 -20 -2 -24 6 -39 88 -10 50 -18 102 -18 118 -1 15 -7 27
-14 27 -8 0 -19 -39 -32 -121z"/>
</g>
</svg>
